<svg width="103" height="104" viewBox="0 0 103 104" fill="none" xmlns="http://www.w3.org/2000/svg">
<path d="M50.2354 78.1427C48.819 77.0012 47.5661 75.6741 46.5038 74.1888C45.9113 73.3637 44.7673 73.178 43.9502 73.7694C43.133 74.3676 42.9492 75.5228 43.5348 76.348C44.7878 78.1014 46.2722 79.683 47.9474 81.0307C48.2674 81.292 48.676 81.4364 49.0846 81.4364C49.643 81.4364 50.1673 81.182 50.5146 80.7419C51.1547 79.9443 51.0253 78.7753 50.2354 78.1427Z" fill="#B3C41D"/>
<path d="M72.4414 45.2331C74.0076 46.1476 75.4444 47.2753 76.711 48.5887C77.0583 48.9463 77.5213 49.1457 78.0184 49.1457C78.5019 49.1457 78.9513 48.96 79.2918 48.6231C80.0136 47.9148 80.0272 46.739 79.3258 46.0101C77.8277 44.4561 76.1253 43.1221 74.2731 42.0425C73.4015 41.5336 72.278 41.8362 71.7741 42.7164C71.5289 43.1427 71.4608 43.6378 71.5902 44.1191C71.7128 44.5936 72.0124 44.9855 72.4414 45.2331Z" fill="#B3C41D"/>
<path d="M79.925 52.983C80.7898 54.592 81.4368 56.3042 81.8385 58.0852C82.0292 58.931 82.7646 59.5223 83.6226 59.5223C83.7588 59.5223 83.895 59.5086 84.0312 59.4742C85.0118 59.2473 85.6314 58.2571 85.4067 57.2669C84.93 55.1559 84.1674 53.1205 83.1391 51.2157C82.9076 50.7825 82.5195 50.4662 82.0496 50.3287C81.5798 50.1912 81.0895 50.2462 80.6605 50.48C80.2315 50.7138 79.9182 51.1057 79.782 51.5802C79.6458 52.0547 79.6867 52.5498 79.925 52.983Z" fill="#B3C41D"/>
<path d="M60.1025 82.3448C58.3047 82.1179 56.5479 81.6434 54.8796 80.9352C53.9535 80.5364 52.8775 80.9833 52.4826 81.9185C52.0876 82.8537 52.5303 83.9401 53.4564 84.339C55.4311 85.1779 57.5148 85.7417 59.6462 86.0099C59.7211 86.0168 59.796 86.0237 59.8709 86.0237C60.7902 86.0237 61.5733 85.3291 61.6823 84.4077C61.7436 83.9195 61.6074 83.4313 61.3077 83.0462C61.0081 82.6611 60.5859 82.4067 60.1025 82.3448Z" fill="#B3C41D"/>
<path d="M43.9776 69.3621C43.3919 67.7393 43.0174 66.034 42.8676 64.3011C54.0761 63.3866 63.0442 54.5299 64.2495 43.2941L64.2563 43.3009L64.2768 43.0878C64.2904 42.9434 64.304 42.799 64.3176 42.6477C65.3731 42.744 66.4218 42.9227 67.4432 43.184C67.9199 43.3078 68.4102 43.2322 68.8255 42.9777C69.2477 42.7233 69.5405 42.3245 69.6631 41.8432C69.7857 41.3687 69.7108 40.8667 69.4656 40.4473C69.2137 40.0209 68.8187 39.7253 68.3421 39.6015C67.0346 39.2645 65.6932 39.0445 64.3312 38.9482C63.412 26.6397 53.2385 17.0679 40.9609 17.0679C28.0432 17.0679 17.5361 27.678 17.5361 40.7223C17.5361 53.134 27.0082 63.3935 39.1973 64.308C39.3539 66.4672 39.8101 68.5919 40.5387 70.6204C40.8043 71.3493 41.4921 71.8376 42.2547 71.8376C42.4658 71.8376 42.6769 71.8032 42.8812 71.7275C43.8346 71.3768 44.318 70.3179 43.9776 69.3621ZM39.2109 60.6086C29.0647 59.7078 21.1929 51.0711 21.1929 40.7223C21.1929 29.7134 30.0589 20.7604 40.9609 20.7604C51.2093 20.7604 59.7621 28.7094 60.6541 38.9551C49.2277 39.8903 40.137 49.0701 39.2109 60.6086ZM42.8812 60.5948C43.7869 51.1399 51.2774 43.5829 60.6405 42.6614C59.728 52.1163 52.2443 59.6734 42.8812 60.5948Z" fill="#B3C41D"/>
<path d="M85.4816 62.3755C85.1547 62.0111 84.7053 61.7979 84.215 61.7704C83.7179 61.7429 83.2617 61.9148 82.9008 62.2449C82.5399 62.575 82.3288 63.0288 82.3015 63.5239C82.213 65.353 81.8794 67.1614 81.3005 68.8874C80.9805 69.8501 81.498 70.9021 82.4514 71.2253C82.642 71.2872 82.8395 71.3216 83.0302 71.3216C83.8133 71.3216 84.5147 70.8128 84.7598 70.0632C85.4407 68.0141 85.8357 65.8756 85.9447 63.7027C85.9787 63.2145 85.8153 62.74 85.4816 62.3755Z" fill="#B3C41D"/>
<path d="M81.4367 73.2885C80.606 72.7178 79.4688 72.9309 78.8968 73.7698C77.8753 75.2757 76.6564 76.6441 75.2673 77.82C74.8927 78.1363 74.6612 78.5832 74.6204 79.0714C74.5795 79.5597 74.7293 80.041 75.0426 80.4192C75.3898 80.8387 75.9006 81.0793 76.4453 81.0793C76.8743 81.0793 77.2897 80.928 77.6234 80.6461C79.2645 79.2502 80.7081 77.6412 81.9202 75.8533C82.4854 75.0144 82.2743 73.8661 81.4367 73.2885Z" fill="#B3C41D"/>
<path d="M70.6911 80.7354C69.0432 81.4849 67.3 82.0075 65.5091 82.2756C65.0256 82.3513 64.6034 82.6057 64.3106 83.0045C64.0178 83.4034 63.902 83.8847 63.9701 84.3729C64.1063 85.2668 64.8826 85.9476 65.7747 85.9476C65.8632 85.9476 65.9517 85.9407 66.047 85.927C68.1716 85.6038 70.2417 84.9918 72.196 84.0979C72.6387 83.8916 72.9791 83.5271 73.1562 83.0664C73.3264 82.6057 73.3128 82.1037 73.1085 81.6568C72.7 80.7285 71.6172 80.3159 70.6911 80.7354Z" fill="#B3C41D"/>
<path d="M31.4208 26.4952C30.9373 26.4402 30.4606 26.5778 30.0793 26.8872C25.871 30.2566 23.4604 35.3038 23.4604 40.7223C23.4604 41.74 24.2776 42.5651 25.2854 42.5651C26.2932 42.5651 27.1104 41.74 27.1104 40.7223C27.1104 36.4384 29.017 32.4432 32.3469 29.7752C32.7282 29.4658 32.9734 29.0326 33.0278 28.5375C33.0823 28.0493 32.9461 27.5679 32.6397 27.176C32.3333 26.7841 31.9111 26.5503 31.4208 26.4952Z" fill="#B3C41D"/>
<path d="M40.9608 23.0503C39.3129 23.0503 37.6786 23.2841 36.1056 23.7379C35.1386 24.0199 34.5734 25.0444 34.8526 26.0209C35.0773 26.8047 35.7992 27.3549 36.6095 27.3549C36.7797 27.3549 36.95 27.3273 37.1202 27.2792C38.3595 26.9148 39.6534 26.736 40.9608 26.736C41.9686 26.736 42.7857 25.9108 42.7857 24.8931C42.7857 23.8754 41.9686 23.0503 40.9608 23.0503Z" fill="#B3C41D"/>
</svg>
